<svg width="36" height="34" viewBox="0 0 36 34" fill="#6157FF" xmlns="http://www.w3.org/2000/svg">
<path d="M18 16.6667C15.525 16.6667 13.4063 15.8507 11.6438 14.2187C9.88125 12.5868 9 10.625 9 8.33333C9 6.04167 9.88125 4.07986 11.6438 2.44792C13.4063 0.815973 15.525 0 18 0C20.475 0 22.5938 0.815973 24.3563 2.44792C26.1188 4.07986 27 6.04167 27 8.33333C27 10.625 26.1188 12.5868 24.3563 14.2187C22.5938 15.8507 20.475 16.6667 18 16.6667ZM0 33.3333V27.5C0 26.3194 0.328501 25.2347 0.985501 24.2458C1.6425 23.2569 2.514 22.5014 3.6 21.9792C5.925 20.9028 8.2875 20.0958 10.6875 19.5583C13.0875 19.0208 15.525 18.7514 18 18.75C20.475 18.75 22.9125 19.0194 25.3125 19.5583C27.7125 20.0972 30.075 20.9042 32.4 21.9792C33.4875 22.5 34.3598 23.2556 35.0168 24.2458C35.6738 25.2361 36.0015 26.3208 36 27.5V33.3333H0Z" fill="#6157FF"/>
</svg>
